<svg width="96" height="96" viewBox="0 0 96 96" fill="none" xmlns="http://www.w3.org/2000/svg">
  <rect width="96" height="96" rx="20" fill="#2563eb"/>
  
  <!-- Film reel -->
  <circle cx="48" cy="48" r="26" fill="none" stroke="white" stroke-width="3"/>
  <circle cx="48" cy="48" r="6" fill="white"/>
  
  <!-- Film holes -->
  <circle cx="34" cy="34" r="3" fill="white"/>
  <circle cx="62" cy="34" r="3" fill="white"/>
  <circle cx="34" cy="62" r="3" fill="white"/>
  <circle cx="62" cy="62" r="3" fill="white"/>
  
  <!-- Additional film holes -->
  <circle cx="22" cy="48" r="2" fill="white"/>
  <circle cx="74" cy="48" r="2" fill="white"/>
  <circle cx="48" cy="22" r="2" fill="white"/>
  <circle cx="48" cy="74" r="2" fill="white"/>
  
  <!-- Stars for rating -->
  <path d="M24 24 L27 18 L30 24 L36 24 L31 28 L33 34 L27 31 L21 34 L23 28 L18 24 Z" fill="#fbbf24"/>
  <path d="M66 24 L69 18 L72 24 L78 24 L73 28 L75 34 L69 31 L63 34 L65 28 L60 24 Z" fill="#fbbf24"/>
  
  <!-- App name -->
  <text x="48" y="86" text-anchor="middle" fill="white" font-family="Arial, sans-serif" font-size="10" font-weight="bold">ReelRate</text>
</svg>