<svg width="144" height="144" viewBox="0 0 144 144" fill="none" xmlns="http://www.w3.org/2000/svg">
  <rect width="144" height="144" rx="32" fill="#2563eb"/>
  
  <!-- Film reel -->
  <circle cx="72" cy="72" r="40" fill="none" stroke="white" stroke-width="4"/>
  <circle cx="72" cy="72" r="10" fill="white"/>
  
  <!-- Film holes -->
  <circle cx="48" cy="48" r="5" fill="white"/>
  <circle cx="96" cy="48" r="5" fill="white"/>
  <circle cx="48" cy="96" r="5" fill="white"/>
  <circle cx="96" cy="96" r="5" fill="white"/>
  
  <!-- Additional film holes -->
  <circle cx="32" cy="72" r="4" fill="white"/>
  <circle cx="112" cy="72" r="4" fill="white"/>
  <circle cx="72" cy="32" r="4" fill="white"/>
  <circle cx="72" cy="112" r="4" fill="white"/>
  
  <!-- Corner film holes -->
  <circle cx="40" cy="40" r="3" fill="white"/>
  <circle cx="104" cy="40" r="3" fill="white"/>
  <circle cx="40" cy="104" r="3" fill="white"/>
  <circle cx="104" cy="104" r="3" fill="white"/>
  
  <!-- Stars for rating -->
  <path d="M36 36 L40 26 L44 36 L54 36 L46 44 L50 54 L40 48 L30 54 L34 44 L26 36 Z" fill="#fbbf24"/>
  <path d="M100 36 L104 26 L108 36 L118 36 L110 44 L114 54 L104 48 L94 54 L98 44 L90 36 Z" fill="#fbbf24"/>
  <path d="M68 18 L72 8 L76 18 L86 18 L78 26 L82 36 L72 30 L62 36 L66 26 L58 18 Z" fill="#fbbf24"/>
  
  <!-- App name -->
  <text x="72" y="132" text-anchor="middle" fill="white" font-family="Arial, sans-serif" font-size="16" font-weight="bold">ReelRate</text>
</svg>